<svg id="Warstwa_1" data-name="Warstwa 1" xmlns="http://www.w3.org/2000/svg" viewBox="0 0 490.79 348.68"><defs><style>.cls-1,.cls-2{fill:none;}.cls-1,.cls-2,.cls-3,.cls-4{stroke:#000;stroke-width:4px;}.cls-1,.cls-4{stroke-miterlimit:10;}.cls-2,.cls-3{stroke-linejoin:round;}</style></defs><path d="M477,10.42A19.25,19.25,0,0,1,496.2,29.65V331.88A19.25,19.25,0,0,1,477,351.11H32.64a19.26,19.26,0,0,1-19.23-19.23V29.65A19.26,19.26,0,0,1,32.64,10.42H477m0-4H32.64A23.23,23.23,0,0,0,9.41,29.65V331.88a23.23,23.23,0,0,0,23.23,23.23H477a23.23,23.23,0,0,0,23.23-23.23V29.65A23.23,23.23,0,0,0,477,6.42Z" transform="translate(-9.41 -6.42)"/><line class="cls-1" x1="3.75" y1="45.52" x2="487.84" y2="45.52"/><circle class="cls-1" cx="26.73" cy="24.62" r="10.21"/><circle class="cls-1" cx="61.33" cy="24.62" r="10.21"/><circle class="cls-1" cx="95.92" cy="24.62" r="10.21"/><path class="cls-1" d="M228.08,263.37" transform="translate(-9.41 -6.42)"/><path class="cls-1" d="M254.81,180.77" transform="translate(-9.41 -6.42)"/><path class="cls-2" d="M309.63,116.14a222.24,222.24,0,0,1,103,58.63,223.1,223.1,0,0,1-315.7,0,222.82,222.82,0,0,1,190.7-63" transform="translate(-9.41 -6.42)"/><path class="cls-2" d="M287.66,111.75a223.48,223.48,0,0,1,22,4.39" transform="translate(-9.41 -6.42)"/><path class="cls-3" d="M254.81,218.2a43.43,43.43,0,1,0,0-86.86" transform="translate(-9.41 -6.42)"/><path class="cls-3" d="M254.81,218.2" transform="translate(-9.41 -6.42)"/><path class="cls-3" d="M254.81,131.34" transform="translate(-9.41 -6.42)"/><path class="cls-2" d="M254.81,218.2a43.43,43.43,0,0,1,0-86.86" transform="translate(-9.41 -6.42)"/><path class="cls-2" d="M254.81,218.2" transform="translate(-9.41 -6.42)"/><path class="cls-2" d="M254.81,131.34" transform="translate(-9.41 -6.42)"/><path class="cls-3" d="M264,160.88" transform="translate(-9.41 -6.42)"/><line class="cls-3" x1="251.85" y1="133.77" x2="204.22" y2="153.02"/><line class="cls-3" x1="250.81" y1="153.02" x2="203.18" y2="172.28"/><line class="cls-3" x1="264.38" y1="183.6" x2="216.76" y2="202.86"/><line class="cls-3" x1="256.23" y1="169.22" x2="208.6" y2="188.48"/><circle class="cls-4" cx="199.4" cy="274.84" r="13.7"/><circle class="cls-4" cx="245.8" cy="274.84" r="13.7"/><circle class="cls-4" cx="292.19" cy="274.84" r="13.7"/></svg>