<svg id="Warstwa_1" data-name="Warstwa 1" xmlns="http://www.w3.org/2000/svg" viewBox="0 0 490.79 348.68"><defs><style>.cls-1{fill:none;stroke:#000;stroke-miterlimit:10;stroke-width:4px;}</style></defs><path d="M476.88,10.42a19.25,19.25,0,0,1,19.23,19.23V331.88a19.25,19.25,0,0,1-19.23,19.23H32.55a19.26,19.26,0,0,1-19.23-19.23V29.65A19.26,19.26,0,0,1,32.55,10.42H476.88m0-4H32.55A23.23,23.23,0,0,0,9.32,29.65V331.88a23.23,23.23,0,0,0,23.23,23.23H476.88a23.23,23.23,0,0,0,23.23-23.23V29.65A23.23,23.23,0,0,0,476.88,6.42Z" transform="translate(-9.32 -6.42)"/><rect x="3.84" y="43.52" width="484.08" height="4"/><path d="M36.14,43.26A12.22,12.22,0,1,1,48.36,31.05,12.23,12.23,0,0,1,36.14,43.26Zm0-20.43a8.22,8.22,0,1,0,8.22,8.22A8.23,8.23,0,0,0,36.14,22.83Z" transform="translate(-9.32 -6.42)"/><path d="M70.74,43.26A12.22,12.22,0,1,1,83,31.05,12.23,12.23,0,0,1,70.74,43.26Zm0-20.43A8.22,8.22,0,1,0,79,31.05,8.22,8.22,0,0,0,70.74,22.83Z" transform="translate(-9.32 -6.42)"/><path d="M105.34,43.26a12.22,12.22,0,1,1,12.21-12.21A12.23,12.23,0,0,1,105.34,43.26Zm0-20.43a8.22,8.22,0,1,0,8.21,8.22A8.23,8.23,0,0,0,105.34,22.83Z" transform="translate(-9.32 -6.42)"/><path class="cls-1" d="M228.08,263.37" transform="translate(-9.32 -6.42)"/><path class="cls-1" d="M254.81,180.77" transform="translate(-9.32 -6.42)"/><path d="M254.72,241.15a46.6,46.6,0,0,0,0-93.19" transform="translate(-9.32 -6.42)"/><path d="M254.72,243.15v-4a44.6,44.6,0,0,0,0-89.19v-4a48.6,48.6,0,0,1,0,97.19Z" transform="translate(-9.32 -6.42)"/><path d="M254.72,265.29a70.74,70.74,0,1,1,70.74-70.74A70.82,70.82,0,0,1,254.72,265.29Zm0-137.48a66.74,66.74,0,1,0,66.74,66.74A66.82,66.82,0,0,0,254.72,127.81Z" transform="translate(-9.32 -6.42)"/><path d="M440.77,239.45h-53.1a13,13,0,0,1-13-13V173.36a13,13,0,0,1,13-13h53.1a13,13,0,0,1,13,13v53.11A13,13,0,0,1,440.77,239.45Zm-53.1-75.07a9,9,0,0,0-9,9v53.11a9,9,0,0,0,9,9h53.1a9,9,0,0,0,9-9V173.36a9,9,0,0,0-9-9Z" transform="translate(-9.32 -6.42)"/><path d="M121.14,238.38H68a13,13,0,0,1-13-13V172.3a13,13,0,0,1,13-13h53.11a13,13,0,0,1,13,13v53.1A13,13,0,0,1,121.14,238.38ZM68,163.32a9,9,0,0,0-9,9v53.1a9,9,0,0,0,9,9h53.11a9,9,0,0,0,9-9V172.3a9,9,0,0,0-9-9Z" transform="translate(-9.32 -6.42)"/><rect x="93.07" y="172.23" width="3.03" height="53.25" rx="1.51" transform="translate(-122.23 118.7) rotate(-45)"/><path d="M112.34,219.12a2.5,2.5,0,0,1-1.78-.74l-35.51-35.5a2.52,2.52,0,0,1,3.56-3.56l35.51,35.51a2.52,2.52,0,0,1-1.78,4.29ZM76.83,180.58a.51.51,0,0,0-.36.15.52.52,0,0,0,0,.73L112,217a.52.52,0,0,0,.88-.37.52.52,0,0,0-.16-.36L77.2,180.73A.53.53,0,0,0,76.83,180.58Z" transform="translate(-9.32 -6.42)"/><rect x="67.96" y="197.34" width="53.25" height="3.03" rx="1.51" transform="translate(-122.23 118.7) rotate(-45)"/><path d="M76.83,219.12a2.52,2.52,0,0,1-1.78-4.29l35.51-35.51a2.52,2.52,0,0,1,3.56,3.56l-35.51,35.5A2.48,2.48,0,0,1,76.83,219.12Zm35.51-38.54a.51.51,0,0,0-.36.15L76.47,216.24a.51.51,0,0,0-.15.36.51.51,0,0,0,.15.37.54.54,0,0,0,.73,0h0l35.5-35.51a.5.5,0,0,0,0-.73A.51.51,0,0,0,112.34,180.58Z" transform="translate(-9.32 -6.42)"/><polygon points="393.32 214.83 377.06 198.56 379.89 195.74 393.34 209.18 429.91 172.94 432.73 175.78 393.32 214.83"/></svg>