<svg id="Warstwa_2" data-name="Warstwa 2" xmlns="http://www.w3.org/2000/svg" viewBox="0 0 807.29 754.89"><defs><style>.cls-1{fill:#aa5ba2;}.cls-2{fill:#63adf2;}.cls-3{fill:#f3eada;}.cls-10,.cls-4{fill:#018578;}.cls-5{fill:#96b1ac;}.cls-6{fill:#796dbb;}.cls-7{fill:#f96900;}.cls-8{fill:#0a2463;}.cls-9{fill:#d11c66;}.cls-10,.cls-11{stroke:#018578;stroke-miterlimit:10;}.cls-11{fill:none;stroke-width:2px;}</style></defs><rect class="cls-1" x="241.53" y="188.99" width="189.2" height="187.32"/><rect class="cls-2" x="241.53" y="376.49" width="189.2" height="186.2"/><rect class="cls-3" x="242.18" y="562.69" width="187.85" height="189.52"/><rect class="cls-4" x="277.72" y="607.9" width="133.53" height="133.53" transform="translate(-385.45 425) rotate(-45)"/><rect class="cls-5" x="305.33" y="635.51" width="78.31" height="78.31" transform="translate(-385.45 425) rotate(-45)"/><rect class="cls-1" x="619.45" y="187.43" width="187.85" height="189.52"/><path class="cls-4" d="M438.65,16.2V205.67H628.13V16.2Zm94.74,128.63a33.9,33.9,0,1,1,33.89-33.9A33.9,33.9,0,0,1,533.39,144.83Z" transform="translate(-9.28 -16.2)"/><path class="cls-2" d="M276,393.15a163.2,163.2,0,0,1,162.7-162.73V205.19c-103.68.27-187.67,84.27-187.93,188Z" transform="translate(-9.28 -16.2)"/><path class="cls-1" d="M276,393.15a163.2,163.2,0,0,0,162.7,162.72v23C335,578.61,251,496.83,250.72,393.15Z" transform="translate(-9.28 -16.2)"/><path class="cls-6" d="M790.58,204.91A163.2,163.2,0,0,0,627.87,42.19V17c103.68.27,187.67,84.27,187.94,188Z" transform="translate(-9.28 -16.2)"/><circle class="cls-7" cx="688.49" cy="121.05" r="18.89"/><path class="cls-2" d="M62.52,582.38c.26,103.68,84.25,187.68,187.93,188V745.1l-.25-163.48" transform="translate(-9.28 -16.2)"/><path class="cls-5" d="M626.93,581.62V771.09H816.4V581.62Zm94.74,128.63a33.9,33.9,0,1,1,33.89-33.89A33.9,33.9,0,0,1,721.67,710.25Z" transform="translate(-9.28 -16.2)"/><path class="cls-7" d="M438.65,323.19a70,70,0,1,0,0,139.91Z" transform="translate(-9.28 -16.2)"/><polygon class="cls-6" points="428.28 188.99 429.31 376.95 617.76 189.47 428.28 188.99"/><polygon class="cls-8" points="429.31 376.95 428.28 188.99 523.02 283.72 429.31 376.95"/><path class="cls-9" d="M385.69,144.83V250.76H491.62V144.83Zm80.45,80.45h-55v-55h55Z" transform="translate(-9.28 -16.2)"/><path class="cls-6" d="M816.4,582.1c-.26-103.81-85.06-187.92-189.73-188.2v25.27l.25,163.69" transform="translate(-9.28 -16.2)"/><circle class="cls-2" cx="524.47" cy="657.16" r="93.74"/><path class="cls-6" d="M250.35,205.55c104.48-.87,188.63-85.5,188.3-189.35l-25.42.15L248.48,17.56" transform="translate(-9.28 -16.2)"/><circle class="cls-5" cx="146.2" cy="283.21" r="93.74"/><rect class="cls-3" x="654.99" y="232.64" width="133.53" height="133.53" transform="translate(-9.6 581.85) rotate(-45)"/><rect class="cls-7" x="682.6" y="260.25" width="78.31" height="78.31" transform="translate(-9.6 581.85) rotate(-45)"/><rect class="cls-3" x="52.71" y="376.49" width="188.94" height="188.94"/><path class="cls-10" d="M109.05,434.14c-.08,17.22-26.25,17.21-26.33,0C82.8,416.93,109,416.93,109.05,434.14Z" transform="translate(-9.28 -16.2)"/><path class="cls-10" d="M169.31,434.14c-.08,17.22-26.26,17.21-26.33,0C143.06,416.93,169.23,416.93,169.31,434.14Z" transform="translate(-9.28 -16.2)"/><path class="cls-11" d="M229.56,434.14c-.07,17.22-26.25,17.21-26.32,0S229.49,416.93,229.56,434.14Z" transform="translate(-9.28 -16.2)"/><circle class="cls-11" cx="86.6" cy="470.97" r="13.16"/><circle class="cls-11" cx="146.86" cy="470.97" r="13.16"/><circle class="cls-11" cx="207.12" cy="470.97" r="13.16"/><circle class="cls-11" cx="87.25" cy="523.99" r="13.16"/><circle class="cls-11" cx="147.51" cy="523.99" r="13.16"/><circle class="cls-10" cx="207.77" cy="523.99" r="13.16"/><path class="cls-4" d="M107,1.35H241.53a0,0,0,0,1,0,0v188a0,0,0,0,1,0,0H53.12a0,0,0,0,1,0,0V55.19A53.84,53.84,0,0,1,107,1.35Z"/><polygon class="cls-7" points="0 139.94 107.68 139.51 107.24 32.2 0 139.94"/><polygon class="cls-7" points="107.68 139.94 215.36 139.51 214.92 32.2 107.68 139.94"/><polygon class="cls-7" points="212.36 139.94 320.04 139.51 319.61 32.2 212.36 139.94"/><path class="cls-4" d="M438.59,393.15l.06,185.73H627.84V393.15Zm34.54,53.9a13.17,13.17,0,1,1,13.16-13.16A13.17,13.17,0,0,1,473.13,447.05Zm60.25,0a13.17,13.17,0,1,1,13.17-13.16A13.16,13.16,0,0,1,533.38,447.05Zm60.26,0a13.17,13.17,0,1,1,13.16-13.16A13.16,13.16,0,0,1,593.64,447.05Z" transform="translate(-9.28 -16.2)"/><rect class="cls-9" x="221.69" y="545.36" width="38.3" height="38.3"/><path class="cls-9" d="M574,529.65V635.58H679.9V529.65Zm80.45,80.46h-55v-55h55Z" transform="translate(-9.28 -16.2)"/></svg>