<svg id="Warstwa_2" data-name="Warstwa 2" xmlns="http://www.w3.org/2000/svg" viewBox="0 0 807.12 754.9"><defs><style>.cls-1{fill:#6b72ff;}.cls-2{fill:#ffb808;}.cls-3{fill:#142039;}.cls-4{fill:#72d2d8;}.cls-5{fill:#ff7a42;}.cls-6{fill:#f4eada;}.cls-7{fill:#018578;}.cls-8{fill:#fff;}.cls-8,.cls-9{stroke:#fff;}.cls-10,.cls-11,.cls-8,.cls-9{stroke-miterlimit:10;}.cls-10,.cls-11,.cls-9{fill:none;}.cls-9{stroke-width:2px;}.cls-10{stroke:#515689;stroke-width:3px;}.cls-11{stroke:#142039;stroke-width:5px;}</style></defs><rect class="cls-1" x="428.41" y="188.99" width="189.23" height="188.21"/><rect class="cls-2" x="241.53" y="188.99" width="189.2" height="187.32"/><rect class="cls-1" x="241.53" y="376.49" width="189.2" height="186.2"/><rect class="cls-3" x="241.17" y="562.68" width="188.2" height="189.52"/><rect class="cls-1" x="277.72" y="607.9" width="133.53" height="133.53" transform="translate(-385.45 425) rotate(-45)"/><rect class="cls-4" x="617.65" y="187.43" width="187.85" height="189.52"/><path class="cls-3" d="M437.7,16.2v189H628.13V16.2Zm95.21,128.3A33.81,33.81,0,1,1,567,110.69,33.94,33.94,0,0,1,532.91,144.5Z" transform="translate(-9.28 -16.2)"/><path class="cls-1" d="M276,393.15a163.2,163.2,0,0,1,162.7-162.73V205.19c-103.68.27-187.67,84.27-187.93,188Z" transform="translate(-9.28 -16.2)"/><path class="cls-2" d="M276,393.15a163.2,163.2,0,0,0,162.7,162.72v23C335,578.61,251,496.83,250.72,393.15Z" transform="translate(-9.28 -16.2)"/><path class="cls-1" d="M790.58,204.91A163.2,163.2,0,0,0,627.87,42.19V17c103.68.27,187.67,84.27,187.94,188Z" transform="translate(-9.28 -16.2)"/><circle class="cls-5" cx="688.49" cy="121.05" r="18.89"/><path class="cls-2" d="M62.52,582.37c.26,102.62,84.25,185.76,187.93,186v-25l-.25-161.82" transform="translate(-9.28 -16.2)"/><path class="cls-5" d="M626.92,578.89V771.1H764.63c28.6,0,51.77-23.51,51.77-52.52V578.89Zm96.94,130.42c-20.45,1.31-37.31-15.8-36-36.55,1.06-17.11,14.75-31,31.62-32.08,20.46-1.31,37.32,15.8,36,36.55C754.42,694.34,740.73,708.23,723.86,709.31Z" transform="translate(-9.28 -16.2)"/><path class="cls-5" d="M438.65,323.19a70,70,0,1,0,0,139.91Z" transform="translate(-9.28 -16.2)"/><polygon class="cls-2" points="428.28 188.99 429.31 376.95 617.76 189.47 428.28 188.99"/><polygon class="cls-3" points="429.31 376.95 428.28 188.99 523.02 283.72 429.31 376.95"/><path class="cls-1" d="M816.4,578.89c-.26-102.05-85.06-185.47-189.73-185.74V418l.25,160.91" transform="translate(-9.28 -16.2)"/><ellipse class="cls-2" cx="523.79" cy="657.16" rx="94.42" ry="93.74"/><path class="cls-1" d="M250.34,205.55C354.3,204.68,438,120.06,437.7,16.2l-25.3.15L248.48,17.56" transform="translate(-9.28 -16.2)"/><circle class="cls-4" cx="146.2" cy="283.21" r="93.74"/><rect class="cls-6" x="654.09" y="231.62" width="133.53" height="133.53" transform="translate(-9.14 580.92) rotate(-45)"/><rect class="cls-7" x="681.7" y="259.23" width="78.31" height="78.31" transform="translate(-9.14 580.92) rotate(-45)"/><rect class="cls-3" x="52.71" y="376.49" width="188.94" height="188.94"/><path class="cls-8" d="M109.05,434.14c-.08,17.22-26.25,17.21-26.33,0C82.8,416.93,109,416.93,109.05,434.14Z" transform="translate(-9.28 -16.2)"/><path class="cls-8" d="M169.31,434.14c-.08,17.22-26.26,17.21-26.33,0C143.06,416.93,169.23,416.93,169.31,434.14Z" transform="translate(-9.28 -16.2)"/><path class="cls-9" d="M229.56,434.14c-.07,17.22-26.25,17.21-26.32,0S229.49,416.93,229.56,434.14Z" transform="translate(-9.28 -16.2)"/><circle class="cls-9" cx="86.6" cy="470.97" r="13.16"/><circle class="cls-9" cx="146.86" cy="470.97" r="13.16"/><circle class="cls-9" cx="207.12" cy="470.97" r="13.16"/><circle class="cls-9" cx="87.25" cy="523.99" r="13.16"/><circle class="cls-9" cx="147.51" cy="523.99" r="13.16"/><circle class="cls-8" cx="207.77" cy="523.99" r="13.16"/><path class="cls-7" d="M107,1.35H241.53a0,0,0,0,1,0,0v188a0,0,0,0,1,0,0H53.12a0,0,0,0,1,0,0V55.19A53.84,53.84,0,0,1,107,1.35Z"/><polygon class="cls-5" points="0 139.94 107.68 139.51 107.24 32.2 0 139.94"/><polygon class="cls-5" points="107.68 139.94 215.36 139.51 214.92 32.2 107.68 139.94"/><polygon class="cls-5" points="212.36 139.94 320.04 139.51 319.61 32.2 212.36 139.94"/><path class="cls-7" d="M438.59,393.15l.06,185.73H626.93V393.15ZM473,447.05a13.17,13.17,0,1,1,13.1-13.16A13.13,13.13,0,0,1,473,447.05Zm60,0A13.17,13.17,0,1,1,546,433.89,13.13,13.13,0,0,1,532.93,447.05Zm60,0A13.17,13.17,0,1,1,606,433.89,13.13,13.13,0,0,1,592.9,447.05Z" transform="translate(-9.28 -16.2)"/><path class="cls-10" d="M626.86,579.21" transform="translate(-9.28 -16.2)"/><path class="cls-11" d="M772,578.81c-.21-77.85-65.17-141.5-145.35-141.7" transform="translate(-9.28 -16.2)"/><path class="cls-11" d="M751.7,578.81c-.18-67-56.06-121.72-125-121.9" transform="translate(-9.28 -16.2)"/><path class="cls-11" d="M731.45,578.81c-.15-56.12-47-102-104.78-102.15" transform="translate(-9.28 -16.2)"/><path class="cls-11" d="M712.15,578.81c-.12-45.79-38.32-83.22-85.48-83.34" transform="translate(-9.28 -16.2)"/><polygon class="cls-4" points="452.81 482.24 429.31 562.68 476.32 562.68 452.81 482.24"/><polygon class="cls-4" points="499.83 482.24 476.32 562.68 523.34 562.68 499.83 482.24"/><polygon class="cls-4" points="546.85 482.24 523.34 562.68 570.36 562.68 546.85 482.24"/><polygon class="cls-4" points="593.87 482.24 570.36 562.68 617.38 562.68 593.87 482.24"/><rect class="cls-2" x="305.33" y="635.51" width="78.31" height="78.31" transform="translate(-385.45 425) rotate(-45)"/></svg>