<svg id="Warstwa_1" data-name="Warstwa 1" xmlns="http://www.w3.org/2000/svg" viewBox="0 0 72.22 84.48"><defs><style>.cls-1{fill:#c42de8;}.cls-2{fill:#ffae1f;}.cls-3{fill:#4f7ee8;}.cls-4{fill:none;stroke:#000;stroke-width:6px;}.cls-5{fill:#20c465;}</style></defs><polygon class="cls-1" points="36.07 84.48 0 63.6 0 38.01 6 38.01 6 60.15 36.07 77.55 40.41 75.04 43.41 80.24 36.07 84.48"/><polygon class="cls-2" points="6 28 0 28 0 20.85 36.11 0 54.25 10.47 51.25 15.67 36.11 6.93 6 24.31 6 28"/><polygon class="cls-3" points="51.32 74.61 48.32 69.42 66.22 59.08 66.22 22.58 68 22.58 69.8 19.45 72.22 20.85 72.22 62.54 51.32 74.61"/><rect class="cls-3" x="64.85" y="18.96" width="6" height="5.9" transform="translate(12.85 68.38) rotate(-60)"/><path class="cls-4" d="M63.32,53.34" transform="translate(-2.1 -1.33)"/><polygon class="cls-5" points="35.64 66.43 14.65 54.27 14.65 29.09 36.23 16.97 56.1 28.69 53.05 33.86 36.16 23.89 20.65 32.6 20.65 50.81 35.64 59.5 52.93 49.52 55.93 54.71 35.64 66.43"/></svg>