<svg id="Warstwa_1" data-name="Warstwa 1" xmlns="http://www.w3.org/2000/svg" viewBox="0 0 693.16 259.15"><defs><style>.cls-1{opacity:0.9;}.cls-2{fill:#f9bf5a;}.cls-3{fill:#3968ff;}.cls-4{fill:#ff3964;}</style></defs><g class="cls-1"><path class="cls-2" d="M131.24,82.63h-.37c-1.89,7.56-4,15.3-6.43,23.05L112,142.54h38.36l-12.47-36.67C135,97.56,133.13,90,131.24,82.63Z" transform="translate(-2.12 -1.73)"/></g><g class="cls-1"><path class="cls-2" d="M131.7,1.73A129.58,129.58,0,1,0,261.28,131.31,129.57,129.57,0,0,0,131.7,1.73Zm35.64,193.73-13.61-40.07H108.56L95.33,195.46h-17L121.61,68.07h19.84l43.47,127.39Z" transform="translate(-2.12 -1.73)"/></g><g class="cls-1"><path class="cls-3" d="M341.55,1.73A129.58,129.58,0,1,0,471.12,131.31,129.57,129.57,0,0,0,341.55,1.73Zm15,177.94c10,0,20.22-2.08,26.84-5.29l3.4,13c-6.05,3-18.15,6.05-33.64,6.05-35.91,0-62.94-22.68-62.94-64.45,0-39.88,27-66.9,66.53-66.9,15.87,0,25.89,3.4,30.24,5.67l-4,13.41c-6.24-3-15.12-5.29-25.71-5.29-29.86,0-49.7,19.09-49.7,52.54C307.64,159.64,325.59,179.67,356.59,179.67Z" transform="translate(-2.12 -1.73)"/></g><g class="cls-1"><path class="cls-4" d="M565.7,1.73A129.58,129.58,0,1,0,695.28,131.31,129.58,129.58,0,0,0,565.7,1.73Zm38.64,192.85H533.47V67.19h16.44V180.78h54.43Z" transform="translate(-2.12 -1.73)"/></g></svg>