<svg id="Warstwa_1" data-name="Warstwa 1" xmlns="http://www.w3.org/2000/svg" viewBox="0 0 490.79 348.68"><defs><style>.cls-1{fill:none;stroke:#000;stroke-miterlimit:10;stroke-width:4px;}</style></defs><path d="M476,10.72A19.26,19.26,0,0,1,495.25,30V332.17A19.25,19.25,0,0,1,476,351.4H31.69a19.24,19.24,0,0,1-19.23-19.23V30A19.25,19.25,0,0,1,31.69,10.72H476m0-4H31.69A23.23,23.23,0,0,0,8.46,30V332.17A23.23,23.23,0,0,0,31.69,355.4H476a23.23,23.23,0,0,0,23.23-23.23V30A23.23,23.23,0,0,0,476,6.72Z" transform="translate(-8.46 -6.72)"/><rect x="3.75" y="43.52" width="484.08" height="4"/><path d="M35.19,43.56A12.22,12.22,0,1,1,47.4,31.34,12.22,12.22,0,0,1,35.19,43.56Zm0-20.43a8.22,8.22,0,1,0,8.21,8.21A8.22,8.22,0,0,0,35.19,23.13Z" transform="translate(-8.46 -6.72)"/><path d="M69.78,43.56A12.22,12.22,0,1,1,82,31.34,12.23,12.23,0,0,1,69.78,43.56Zm0-20.43A8.22,8.22,0,1,0,78,31.34,8.22,8.22,0,0,0,69.78,23.13Z" transform="translate(-8.46 -6.72)"/><path d="M104.38,43.56a12.22,12.22,0,1,1,12.21-12.22A12.23,12.23,0,0,1,104.38,43.56Zm0-20.43a8.22,8.22,0,1,0,8.21,8.21A8.22,8.22,0,0,0,104.38,23.13Z" transform="translate(-8.46 -6.72)"/><path d="M143.74,141.56H44.12a11,11,0,0,1-10.93-10.94V95.9A11,11,0,0,1,44.12,85h99.62A11,11,0,0,1,154.68,95.9v34.72A11,11,0,0,1,143.74,141.56ZM44.12,89a6.94,6.94,0,0,0-6.93,6.94v34.72a7,7,0,0,0,6.93,6.94h99.62a7,7,0,0,0,6.94-6.94V95.9A6.94,6.94,0,0,0,143.74,89Z" transform="translate(-8.46 -6.72)"/><path d="M143.74,215.34H44.12a10.94,10.94,0,0,1-10.93-10.93V169.68a10.94,10.94,0,0,1,10.93-10.93h99.62a11,11,0,0,1,10.94,10.93v34.73A11,11,0,0,1,143.74,215.34ZM44.12,162.75a6.94,6.94,0,0,0-6.93,6.93v34.73a6.94,6.94,0,0,0,6.93,6.93h99.62a6.94,6.94,0,0,0,6.94-6.93V169.68a6.94,6.94,0,0,0-6.94-6.93Z" transform="translate(-8.46 -6.72)"/><path d="M143.74,295H44.12a10.94,10.94,0,0,1-10.93-10.93V249.34a10.94,10.94,0,0,1,10.93-10.93h99.62a11,11,0,0,1,10.94,10.93v34.73A11,11,0,0,1,143.74,295ZM44.12,242.41a6.94,6.94,0,0,0-6.93,6.93v34.73A6.94,6.94,0,0,0,44.12,291h99.62a6.94,6.94,0,0,0,6.94-6.93V249.34a6.94,6.94,0,0,0-6.94-6.93Z" transform="translate(-8.46 -6.72)"/><path d="M304.49,294.49H190.61a10.94,10.94,0,0,1-10.93-10.93V169.68a10.94,10.94,0,0,1,10.93-10.93H304.49a10.94,10.94,0,0,1,10.93,10.93V283.56A10.94,10.94,0,0,1,304.49,294.49ZM190.61,162.75a6.94,6.94,0,0,0-6.93,6.93V283.56a6.94,6.94,0,0,0,6.93,6.93H304.49a6.94,6.94,0,0,0,6.93-6.93V169.68a6.94,6.94,0,0,0-6.93-6.93Z" transform="translate(-8.46 -6.72)"/><path d="M457.42,141.56H190.61a11,11,0,0,1-10.93-10.94V95.9A11,11,0,0,1,190.61,85H457.42A11,11,0,0,1,468.36,95.9v34.72A11,11,0,0,1,457.42,141.56ZM190.61,89a6.94,6.94,0,0,0-6.93,6.94v34.72a7,7,0,0,0,6.93,6.94H457.42a7,7,0,0,0,6.94-6.94V95.9A6.94,6.94,0,0,0,457.42,89Z" transform="translate(-8.46 -6.72)"/><path class="cls-1" d="M228.38,263.66" transform="translate(-8.46 -6.72)"/><path class="cls-1" d="M231.38,262.66" transform="translate(-8.46 -6.72)"/><path d="M362.41,219.43a30.34,30.34,0,1,1,30.34-30.34A30.37,30.37,0,0,1,362.41,219.43Zm0-56.68a26.34,26.34,0,1,0,26.34,26.34A26.36,26.36,0,0,0,362.41,162.75Z" transform="translate(-8.46 -6.72)"/><path d="M362.41,297a30.34,30.34,0,1,1,30.34-30.34A30.37,30.37,0,0,1,362.41,297Zm0-56.68a26.34,26.34,0,1,0,26.34,26.34A26.37,26.37,0,0,0,362.41,240.36Z" transform="translate(-8.46 -6.72)"/><path d="M457.42,294.49H422.7a11,11,0,0,1-10.94-10.93V169.68a11,11,0,0,1,10.94-10.93h34.72a11,11,0,0,1,10.94,10.93V283.56A11,11,0,0,1,457.42,294.49ZM422.7,162.75a6.94,6.94,0,0,0-6.94,6.93V283.56a6.94,6.94,0,0,0,6.94,6.93h34.72a6.94,6.94,0,0,0,6.94-6.93V169.68a6.94,6.94,0,0,0-6.94-6.93Z" transform="translate(-8.46 -6.72)"/></svg>