<svg id="Warstwa_1" data-name="Warstwa 1" xmlns="http://www.w3.org/2000/svg" viewBox="0 0 490.79 348.68"><defs><style>.cls-1{fill:none;stroke:#000;stroke-miterlimit:10;stroke-width:4px;}</style></defs><path d="M476,10.72A19.26,19.26,0,0,1,495.25,30V332.17A19.25,19.25,0,0,1,476,351.4H31.69a19.24,19.24,0,0,1-19.23-19.23V30A19.25,19.25,0,0,1,31.69,10.72H476m0-4H31.69A23.23,23.23,0,0,0,8.46,30V332.17A23.23,23.23,0,0,0,31.69,355.4H476a23.23,23.23,0,0,0,23.23-23.23V30A23.23,23.23,0,0,0,476,6.72Z" transform="translate(-8.46 -6.72)"/><rect x="3.75" y="43.52" width="484.08" height="4"/><path d="M35.19,43.56A12.22,12.22,0,1,1,47.4,31.34,12.22,12.22,0,0,1,35.19,43.56Zm0-20.43a8.22,8.22,0,1,0,8.21,8.21A8.22,8.22,0,0,0,35.19,23.13Z" transform="translate(-8.46 -6.72)"/><path d="M69.78,43.56A12.22,12.22,0,1,1,82,31.34,12.23,12.23,0,0,1,69.78,43.56Zm0-20.43A8.22,8.22,0,1,0,78,31.34,8.22,8.22,0,0,0,69.78,23.13Z" transform="translate(-8.46 -6.72)"/><path d="M104.38,43.56a12.22,12.22,0,1,1,12.21-12.22A12.23,12.23,0,0,1,104.38,43.56Zm0-20.43a8.22,8.22,0,1,0,8.21,8.21A8.22,8.22,0,0,0,104.38,23.13Z" transform="translate(-8.46 -6.72)"/><path d="M139.1,141.56h-95a11,11,0,0,1-10.93-10.94V95.9A11,11,0,0,1,44.12,85h95A11,11,0,0,1,150,95.9v34.72A11,11,0,0,1,139.1,141.56ZM44.12,89a6.94,6.94,0,0,0-6.93,6.94v34.72a7,7,0,0,0,6.93,6.94h95a7,7,0,0,0,6.94-6.94V95.9A6.94,6.94,0,0,0,139.1,89Z" transform="translate(-8.46 -6.72)"/><path d="M139.1,215.34h-95a10.94,10.94,0,0,1-10.93-10.93V169.68a10.94,10.94,0,0,1,10.93-10.93h95A11,11,0,0,1,150,169.68v34.73A11,11,0,0,1,139.1,215.34Zm-95-52.59a6.94,6.94,0,0,0-6.93,6.93v34.73a6.94,6.94,0,0,0,6.93,6.93h95a6.94,6.94,0,0,0,6.94-6.93V169.68a6.94,6.94,0,0,0-6.94-6.93Z" transform="translate(-8.46 -6.72)"/><path d="M139.1,295h-95a10.94,10.94,0,0,1-10.93-10.93V249.34a10.94,10.94,0,0,1,10.93-10.93h95A11,11,0,0,1,150,249.34v34.73A11,11,0,0,1,139.1,295Zm-95-52.59a6.94,6.94,0,0,0-6.93,6.93v34.73A6.94,6.94,0,0,0,44.12,291h95a6.94,6.94,0,0,0,6.94-6.93V249.34a6.94,6.94,0,0,0-6.94-6.93Z" transform="translate(-8.46 -6.72)"/><path d="M304.49,294.49H190.61a10.94,10.94,0,0,1-10.93-10.93V169.68a10.94,10.94,0,0,1,10.93-10.93H304.49a10.94,10.94,0,0,1,10.93,10.93V283.56A10.94,10.94,0,0,1,304.49,294.49ZM190.61,162.75a6.94,6.94,0,0,0-6.93,6.93V283.56a6.94,6.94,0,0,0,6.93,6.93H304.49a6.94,6.94,0,0,0,6.93-6.93V169.68a6.94,6.94,0,0,0-6.93-6.93Z" transform="translate(-8.46 -6.72)"/><path d="M457.42,141.56H190.61a11,11,0,0,1-10.93-10.94V95.9A11,11,0,0,1,190.61,85H457.42A11,11,0,0,1,468.36,95.9v34.72A11,11,0,0,1,457.42,141.56ZM190.61,89a6.94,6.94,0,0,0-6.93,6.94v34.72a7,7,0,0,0,6.93,6.94H457.42a7,7,0,0,0,6.94-6.94V95.9A6.94,6.94,0,0,0,457.42,89Z" transform="translate(-8.46 -6.72)"/><rect x="324.11" y="158.03" width="52.08" height="4"/><rect x="393.05" y="158.03" width="61.28" height="4"/><rect x="324.11" y="178.34" width="84.4" height="4"/><rect x="423.69" y="178.34" width="30.64" height="4"/><rect x="324.11" y="201.94" width="10.72" height="4"/><rect x="351.05" y="201.94" width="58.08" height="4"/><rect x="423.69" y="201.94" width="30.64" height="4"/><rect x="324.11" y="229.52" width="57.83" height="4"/><path class="cls-1" d="M228.38,263.66" transform="translate(-8.46 -6.72)"/><path class="cls-1" d="M231.38,262.66" transform="translate(-8.46 -6.72)"/></svg>